<mxfile host="app.diagrams.net" modified="2021-03-06T13:38:03.793Z" agent="5.0 (X11; Linux x86_64) AppleWebKit/537.36 (KHTML, like Gecko) Chrome/88.0.4324.96 Safari/537.36" etag="5-MifVKGePmntpKik7vA" version="14.4.2" type="github">
  <diagram id="mHWKHOod9rhD8t9PjVuG" name="第 1 页">
    <mxGraphModel dx="1129" dy="645" grid="1" gridSize="10" guides="1" tooltips="1" connect="1" arrows="1" fold="1" page="1" pageScale="1" pageWidth="827" pageHeight="1169" math="0" shadow="0">
      <root>
        <mxCell id="0" />
        <mxCell id="1" parent="0" />
        <mxCell id="hBAVH_rcLEj5HTc12F7Q-1" value="" style="rounded=0;whiteSpace=wrap;html=1;strokeWidth=1;fontSize=7;" vertex="1" parent="1">
          <mxGeometry x="277" y="312" width="343" height="262" as="geometry" />
        </mxCell>
        <mxCell id="hBAVH_rcLEj5HTc12F7Q-2" value="" style="rounded=0;whiteSpace=wrap;html=1;" vertex="1" parent="1">
          <mxGeometry x="20" y="150" width="237" height="381" as="geometry" />
        </mxCell>
        <mxCell id="hBAVH_rcLEj5HTc12F7Q-3" value="Darknet53" style="text;html=1;resizable=0;autosize=1;align=center;verticalAlign=middle;points=[];rounded=0;strokeWidth=5;perimeterSpacing=6;fontStyle=0;fontSize=16;" vertex="1" parent="1">
          <mxGeometry x="27" y="162" width="90" height="20" as="geometry" />
        </mxCell>
        <mxCell id="hBAVH_rcLEj5HTc12F7Q-4" value="" style="rounded=0;whiteSpace=wrap;html=1;strokeWidth=1;fontSize=16;" vertex="1" parent="1">
          <mxGeometry x="40" y="202" width="197" height="28" as="geometry" />
        </mxCell>
        <mxCell id="hBAVH_rcLEj5HTc12F7Q-5" value="&lt;font style=&quot;font-size: 13px;&quot;&gt;Inputs(3, 608, 608)&lt;/font&gt;" style="text;html=1;resizable=0;autosize=1;align=center;verticalAlign=middle;points=[];fillColor=none;strokeColor=none;rounded=0;fontSize=13;" vertex="1" parent="1">
          <mxGeometry x="94" y="206" width="121" height="20" as="geometry" />
        </mxCell>
        <mxCell id="hBAVH_rcLEj5HTc12F7Q-6" value="&lt;span style=&quot;color: rgb(0 , 0 , 0) ; font-family: &amp;#34;helvetica&amp;#34; ; font-size: 7px ; font-style: normal ; font-weight: 400 ; letter-spacing: normal ; text-align: center ; text-indent: 0px ; text-transform: none ; word-spacing: 0px ; background-color: rgb(248 , 249 , 250) ; display: inline ; float: none&quot;&gt;BasicConv_3x3(32, 608, 608)&lt;/span&gt;" style="rounded=0;whiteSpace=wrap;html=1;strokeWidth=1;fontSize=7;" vertex="1" parent="1">
          <mxGeometry x="40" y="249" width="197" height="28" as="geometry" />
        </mxCell>
        <mxCell id="hBAVH_rcLEj5HTc12F7Q-7" value="&lt;span style=&quot;color: rgb(0 , 0 , 0) ; font-family: &amp;#34;helvetica&amp;#34; ; font-size: 7px ; font-style: normal ; font-weight: 400 ; letter-spacing: normal ; text-align: center ; text-indent: 0px ; text-transform: none ; word-spacing: 0px ; background-color: rgb(248 , 249 , 250) ; display: inline ; float: none&quot;&gt;1 x Resblock_body(64, 304, 304)&lt;/span&gt;" style="rounded=0;whiteSpace=wrap;html=1;strokeWidth=1;fontSize=7;" vertex="1" parent="1">
          <mxGeometry x="39.5" y="295" width="197.5" height="28" as="geometry" />
        </mxCell>
        <mxCell id="hBAVH_rcLEj5HTc12F7Q-8" value="" style="endArrow=classic;html=1;fontSize=7;" edge="1" parent="1">
          <mxGeometry width="50" height="50" relative="1" as="geometry">
            <mxPoint x="154.16000000000008" y="229.9999999999999" as="sourcePoint" />
            <mxPoint x="154.16000000000008" y="249" as="targetPoint" />
          </mxGeometry>
        </mxCell>
        <mxCell id="hBAVH_rcLEj5HTc12F7Q-9" value="" style="endArrow=classic;html=1;fontSize=7;" edge="1" parent="1">
          <mxGeometry width="50" height="50" relative="1" as="geometry">
            <mxPoint x="153.66000000000008" y="277" as="sourcePoint" />
            <mxPoint x="153.66000000000008" y="296" as="targetPoint" />
          </mxGeometry>
        </mxCell>
        <mxCell id="hBAVH_rcLEj5HTc12F7Q-10" value="&lt;span style=&quot;color: rgb(0 , 0 , 0) ; font-family: &amp;#34;helvetica&amp;#34; ; font-style: normal ; font-weight: 400 ; letter-spacing: normal ; text-align: center ; text-indent: 0px ; text-transform: none ; word-spacing: 0px ; background-color: rgb(248 , 249 , 250) ; display: inline ; float: none ; font-size: 7px&quot;&gt;&lt;font style=&quot;font-size: 7px&quot;&gt;&amp;nbsp; 2 x Resblock_body(128, 152, 152)&lt;/font&gt;&lt;/span&gt;" style="rounded=0;whiteSpace=wrap;html=1;strokeWidth=1;fontSize=7;" vertex="1" parent="1">
          <mxGeometry x="40" y="341" width="197" height="28" as="geometry" />
        </mxCell>
        <mxCell id="hBAVH_rcLEj5HTc12F7Q-11" value="" style="endArrow=classic;html=1;fontSize=7;" edge="1" parent="1">
          <mxGeometry width="50" height="50" relative="1" as="geometry">
            <mxPoint x="154.16000000000008" y="323" as="sourcePoint" />
            <mxPoint x="154.16000000000008" y="342" as="targetPoint" />
          </mxGeometry>
        </mxCell>
        <mxCell id="hBAVH_rcLEj5HTc12F7Q-12" value="&lt;span style=&quot;color: rgb(0 , 0 , 0) ; font-family: &amp;#34;helvetica&amp;#34; ; font-style: normal ; font-weight: 400 ; letter-spacing: normal ; text-align: center ; text-indent: 0px ; text-transform: none ; word-spacing: 0px ; background-color: rgb(248 , 249 , 250) ; display: inline ; float: none ; font-size: 7px&quot;&gt;&lt;font style=&quot;font-size: 7px&quot;&gt;8 x Resblock_body(256, 76, 76)&amp;nbsp; &amp;nbsp;&lt;/font&gt;&lt;/span&gt;" style="rounded=0;whiteSpace=wrap;html=1;strokeWidth=1;fontSize=7;" vertex="1" parent="1">
          <mxGeometry x="40" y="387" width="197" height="28" as="geometry" />
        </mxCell>
        <mxCell id="hBAVH_rcLEj5HTc12F7Q-13" value="&lt;span style=&quot;color: rgb(0 , 0 , 0) ; font-family: &amp;#34;helvetica&amp;#34; ; font-style: normal ; font-weight: 400 ; letter-spacing: normal ; text-align: center ; text-indent: 0px ; text-transform: none ; word-spacing: 0px ; background-color: rgb(248 , 249 , 250) ; display: inline ; float: none ; font-size: 7px&quot;&gt;&lt;font style=&quot;font-size: 7px&quot;&gt;8 x Resblock_body(512, 38, 38)&amp;nbsp; &amp;nbsp;&lt;/font&gt;&lt;/span&gt;" style="rounded=0;whiteSpace=wrap;html=1;strokeWidth=1;fontSize=7;" vertex="1" parent="1">
          <mxGeometry x="40" y="433" width="197" height="28" as="geometry" />
        </mxCell>
        <mxCell id="hBAVH_rcLEj5HTc12F7Q-14" value="" style="endArrow=classic;html=1;fontSize=7;" edge="1" parent="1">
          <mxGeometry width="50" height="50" relative="1" as="geometry">
            <mxPoint x="153.66000000000008" y="369" as="sourcePoint" />
            <mxPoint x="153.66000000000008" y="388" as="targetPoint" />
          </mxGeometry>
        </mxCell>
        <mxCell id="hBAVH_rcLEj5HTc12F7Q-15" value="" style="endArrow=classic;html=1;fontSize=7;" edge="1" parent="1">
          <mxGeometry width="50" height="50" relative="1" as="geometry">
            <mxPoint x="154.16000000000008" y="414" as="sourcePoint" />
            <mxPoint x="154.16000000000008" y="433" as="targetPoint" />
          </mxGeometry>
        </mxCell>
        <mxCell id="hBAVH_rcLEj5HTc12F7Q-16" value="&lt;span style=&quot;font-family: &amp;#34;helvetica&amp;#34;&quot;&gt;4 x Resblock_body(1024, 19, 19)&amp;nbsp;&lt;/span&gt;" style="rounded=0;whiteSpace=wrap;html=1;strokeWidth=1;fontSize=7;" vertex="1" parent="1">
          <mxGeometry x="40" y="479" width="197" height="28" as="geometry" />
        </mxCell>
        <mxCell id="hBAVH_rcLEj5HTc12F7Q-17" value="" style="endArrow=classic;html=1;fontSize=7;" edge="1" parent="1">
          <mxGeometry width="50" height="50" relative="1" as="geometry">
            <mxPoint x="154.16000000000008" y="460" as="sourcePoint" />
            <mxPoint x="154.16000000000008" y="479" as="targetPoint" />
          </mxGeometry>
        </mxCell>
        <mxCell id="hBAVH_rcLEj5HTc12F7Q-18" value="&lt;span style=&quot;color: rgb(0 , 0 , 0) ; font-family: &amp;#34;helvetica&amp;#34; ; font-style: normal ; letter-spacing: normal ; text-align: center ; text-indent: 0px ; text-transform: none ; word-spacing: 0px ; background-color: rgb(248 , 249 , 250) ; display: inline ; float: none ; font-size: 7px&quot;&gt;&lt;font style=&quot;font-size: 7px&quot;&gt;conv x 5 1024&lt;/font&gt;&lt;/span&gt;" style="rounded=0;whiteSpace=wrap;html=1;strokeWidth=1;fontSize=7;" vertex="1" parent="1">
          <mxGeometry x="310.38" y="531" width="82.25" height="28" as="geometry" />
        </mxCell>
        <mxCell id="hBAVH_rcLEj5HTc12F7Q-19" value="&lt;span style=&quot;color: rgb(0 , 0 , 0) ; font-family: &amp;#34;helvetica&amp;#34; ; font-style: normal ; letter-spacing: normal ; text-align: center ; text-indent: 0px ; text-transform: none ; word-spacing: 0px ; background-color: rgb(248 , 249 , 250) ; display: inline ; float: none ; font-size: 7px&quot;&gt;&lt;font style=&quot;font-size: 7px&quot;&gt;concat-&amp;gt;768&lt;/font&gt;&lt;/span&gt;" style="rounded=0;whiteSpace=wrap;html=1;strokeWidth=1;fontSize=7;" vertex="1" parent="1">
          <mxGeometry x="310.38" y="433" width="82.25" height="28" as="geometry" />
        </mxCell>
        <mxCell id="hBAVH_rcLEj5HTc12F7Q-21" value="&lt;font face=&quot;helvetica&quot; style=&quot;font-size: 11px&quot;&gt;Yolo Head1&lt;/font&gt;" style="rounded=0;whiteSpace=wrap;html=1;strokeWidth=1;fontSize=7;" vertex="1" parent="1">
          <mxGeometry x="640" y="343" width="80" height="28" as="geometry" />
        </mxCell>
        <mxCell id="hBAVH_rcLEj5HTc12F7Q-22" value="&lt;font style=&quot;font-size: 17px&quot;&gt;FPN&lt;/font&gt;" style="text;html=1;resizable=0;autosize=1;align=center;verticalAlign=middle;points=[];fillColor=none;strokeColor=none;rounded=0;fontSize=7;" vertex="1" parent="1">
          <mxGeometry x="277.5" y="323" width="42" height="14" as="geometry" />
        </mxCell>
        <mxCell id="hBAVH_rcLEj5HTc12F7Q-24" value="" style="endArrow=classic;html=1;exitX=1;exitY=0.5;exitDx=0;exitDy=0;" edge="1" parent="1" source="hBAVH_rcLEj5HTc12F7Q-18">
          <mxGeometry width="50" height="50" relative="1" as="geometry">
            <mxPoint x="451.5" y="544.66" as="sourcePoint" />
            <mxPoint x="640" y="545" as="targetPoint" />
          </mxGeometry>
        </mxCell>
        <mxCell id="hBAVH_rcLEj5HTc12F7Q-25" value="" style="endArrow=classic;html=1;exitX=1;exitY=0.5;exitDx=0;exitDy=0;" edge="1" parent="1">
          <mxGeometry width="50" height="50" relative="1" as="geometry">
            <mxPoint x="602.25" y="357.04999999999995" as="sourcePoint" />
            <mxPoint x="640" y="357" as="targetPoint" />
          </mxGeometry>
        </mxCell>
        <mxCell id="hBAVH_rcLEj5HTc12F7Q-30" value="" style="endArrow=none;html=1;" edge="1" parent="1">
          <mxGeometry width="50" height="50" relative="1" as="geometry">
            <mxPoint x="154" y="546" as="sourcePoint" />
            <mxPoint x="154" y="507" as="targetPoint" />
          </mxGeometry>
        </mxCell>
        <mxCell id="hBAVH_rcLEj5HTc12F7Q-31" value="" style="endArrow=classic;html=1;entryX=0;entryY=0.5;entryDx=0;entryDy=0;" edge="1" parent="1" target="hBAVH_rcLEj5HTc12F7Q-18">
          <mxGeometry width="50" height="50" relative="1" as="geometry">
            <mxPoint x="154" y="546" as="sourcePoint" />
            <mxPoint x="287" y="545" as="targetPoint" />
          </mxGeometry>
        </mxCell>
        <mxCell id="hBAVH_rcLEj5HTc12F7Q-32" value="" style="endArrow=classic;html=1;exitX=1;exitY=0.5;exitDx=0;exitDy=0;entryX=0;entryY=0.5;entryDx=0;entryDy=0;" edge="1" parent="1" target="hBAVH_rcLEj5HTc12F7Q-19">
          <mxGeometry width="50" height="50" relative="1" as="geometry">
            <mxPoint x="237" y="446.88" as="sourcePoint" />
            <mxPoint x="297" y="447" as="targetPoint" />
          </mxGeometry>
        </mxCell>
        <mxCell id="hBAVH_rcLEj5HTc12F7Q-35" value="" style="endArrow=none;html=1;" edge="1" parent="1">
          <mxGeometry width="50" height="50" relative="1" as="geometry">
            <mxPoint x="237" y="400.71" as="sourcePoint" />
            <mxPoint x="267" y="401" as="targetPoint" />
          </mxGeometry>
        </mxCell>
        <mxCell id="hBAVH_rcLEj5HTc12F7Q-37" value="" style="endArrow=classic;html=1;entryX=0.018;entryY=0.429;entryDx=0;entryDy=0;entryPerimeter=0;" edge="1" parent="1" target="hBAVH_rcLEj5HTc12F7Q-42">
          <mxGeometry width="50" height="50" relative="1" as="geometry">
            <mxPoint x="267" y="355" as="sourcePoint" />
            <mxPoint x="317" y="371" as="targetPoint" />
          </mxGeometry>
        </mxCell>
        <mxCell id="hBAVH_rcLEj5HTc12F7Q-41" value="&lt;span style=&quot;color: rgb(0 , 0 , 0) ; font-family: &amp;#34;helvetica&amp;#34; ; font-style: normal ; letter-spacing: normal ; text-align: center ; text-indent: 0px ; text-transform: none ; word-spacing: 0px ; background-color: rgb(248 , 249 , 250) ; display: inline ; float: none ; font-size: 7px&quot;&gt;&lt;font style=&quot;font-size: 7px&quot;&gt;conv x 5 256&lt;/font&gt;&lt;/span&gt;" style="rounded=0;whiteSpace=wrap;html=1;strokeWidth=1;fontSize=7;" vertex="1" parent="1">
          <mxGeometry x="414" y="433" width="82.25" height="28" as="geometry" />
        </mxCell>
        <mxCell id="hBAVH_rcLEj5HTc12F7Q-42" value="&lt;span style=&quot;color: rgb(0 , 0 , 0) ; font-family: &amp;#34;helvetica&amp;#34; ; font-style: normal ; letter-spacing: normal ; text-align: center ; text-indent: 0px ; text-transform: none ; word-spacing: 0px ; background-color: rgb(248 , 249 , 250) ; display: inline ; float: none ; font-size: 7px&quot;&gt;&lt;font style=&quot;font-size: 7px&quot;&gt;concat-&amp;gt;384&lt;/font&gt;&lt;/span&gt;" style="rounded=0;whiteSpace=wrap;html=1;strokeWidth=1;fontSize=7;" vertex="1" parent="1">
          <mxGeometry x="414" y="343" width="82.25" height="28" as="geometry" />
        </mxCell>
        <mxCell id="hBAVH_rcLEj5HTc12F7Q-43" value="upsample&amp;nbsp;" style="rounded=0;whiteSpace=wrap;html=1;strokeWidth=1;fontSize=7;" vertex="1" parent="1">
          <mxGeometry x="421.72" y="371" width="66.82" height="21" as="geometry" />
        </mxCell>
        <mxCell id="hBAVH_rcLEj5HTc12F7Q-44" value="&lt;span style=&quot;color: rgb(0 , 0 , 0) ; font-family: &amp;#34;helvetica&amp;#34; ; font-style: normal ; letter-spacing: normal ; text-align: center ; text-indent: 0px ; text-transform: none ; word-spacing: 0px ; background-color: rgb(248 , 249 , 250) ; display: inline ; float: none ; font-size: 7px&quot;&gt;&lt;font style=&quot;font-size: 7px&quot;&gt;conv x 5 128&lt;/font&gt;&lt;/span&gt;" style="rounded=0;whiteSpace=wrap;html=1;strokeWidth=1;fontSize=7;" vertex="1" parent="1">
          <mxGeometry x="520" y="343" width="82.25" height="28" as="geometry" />
        </mxCell>
        <mxCell id="hBAVH_rcLEj5HTc12F7Q-47" value="" style="endArrow=none;html=1;" edge="1" parent="1">
          <mxGeometry width="50" height="50" relative="1" as="geometry">
            <mxPoint x="267" y="402" as="sourcePoint" />
            <mxPoint x="267" y="355" as="targetPoint" />
          </mxGeometry>
        </mxCell>
        <mxCell id="hBAVH_rcLEj5HTc12F7Q-49" value="upsample&amp;nbsp;" style="rounded=0;whiteSpace=wrap;html=1;strokeWidth=1;fontSize=7;" vertex="1" parent="1">
          <mxGeometry x="318.09000000000003" y="461" width="66.82" height="21" as="geometry" />
        </mxCell>
        <mxCell id="hBAVH_rcLEj5HTc12F7Q-50" value="" style="endArrow=classic;html=1;" edge="1" parent="1">
          <mxGeometry width="50" height="50" relative="1" as="geometry">
            <mxPoint x="454.99" y="433" as="sourcePoint" />
            <mxPoint x="455.08" y="392" as="targetPoint" />
          </mxGeometry>
        </mxCell>
        <mxCell id="hBAVH_rcLEj5HTc12F7Q-51" value="" style="endArrow=classic;html=1;entryX=0.5;entryY=1;entryDx=0;entryDy=0;" edge="1" parent="1" target="hBAVH_rcLEj5HTc12F7Q-49">
          <mxGeometry width="50" height="50" relative="1" as="geometry">
            <mxPoint x="351.2600000000001" y="531" as="sourcePoint" />
            <mxPoint x="351.35" y="490" as="targetPoint" />
          </mxGeometry>
        </mxCell>
        <mxCell id="hBAVH_rcLEj5HTc12F7Q-52" value="" style="endArrow=none;html=1;entryX=0;entryY=0.5;entryDx=0;entryDy=0;" edge="1" parent="1" target="hBAVH_rcLEj5HTc12F7Q-41">
          <mxGeometry width="50" height="50" relative="1" as="geometry">
            <mxPoint x="392.63" y="447" as="sourcePoint" />
            <mxPoint x="410" y="447" as="targetPoint" />
          </mxGeometry>
        </mxCell>
        <mxCell id="hBAVH_rcLEj5HTc12F7Q-53" value="" style="endArrow=none;html=1;" edge="1" parent="1">
          <mxGeometry width="50" height="50" relative="1" as="geometry">
            <mxPoint x="497.2500000000001" y="356.76" as="sourcePoint" />
            <mxPoint x="519" y="357" as="targetPoint" />
          </mxGeometry>
        </mxCell>
        <mxCell id="hBAVH_rcLEj5HTc12F7Q-54" value="" style="endArrow=classic;html=1;exitX=1;exitY=0.5;exitDx=0;exitDy=0;" edge="1" parent="1">
          <mxGeometry width="50" height="50" relative="1" as="geometry">
            <mxPoint x="496.2500000000001" y="447.05" as="sourcePoint" />
            <mxPoint x="640" y="447" as="targetPoint" />
          </mxGeometry>
        </mxCell>
        <mxCell id="hBAVH_rcLEj5HTc12F7Q-56" value="&lt;font face=&quot;helvetica&quot; style=&quot;font-size: 11px&quot;&gt;Yolo Head2&lt;/font&gt;" style="rounded=0;whiteSpace=wrap;html=1;strokeWidth=1;fontSize=7;" vertex="1" parent="1">
          <mxGeometry x="640" y="433" width="80" height="28" as="geometry" />
        </mxCell>
        <mxCell id="hBAVH_rcLEj5HTc12F7Q-57" value="&lt;font face=&quot;helvetica&quot; style=&quot;font-size: 11px&quot;&gt;Yolo Head3&lt;/font&gt;" style="rounded=0;whiteSpace=wrap;html=1;strokeWidth=1;fontSize=7;" vertex="1" parent="1">
          <mxGeometry x="640" y="531" width="80" height="28" as="geometry" />
        </mxCell>
      </root>
    </mxGraphModel>
  </diagram>
</mxfile>
